<svg id="Ebene_1" data-name="Ebene 1" xmlns="http://www.w3.org/2000/svg" viewBox="0 0 37.86 54.84"><defs><style>.cls-1{fill:#6e4723;}.cls-2,.cls-3,.cls-4{fill:none;stroke-width:2px;}.cls-2{stroke:#ebdecd;}.cls-2,.cls-3{stroke-miterlimit:10;}.cls-3,.cls-4{stroke:#1d1d1b;}.cls-4{stroke-linecap:round;stroke-linejoin:round;}.cls-5,.cls-6{fill:#daeef1;}.cls-5{opacity:0.8;}.cls-6{opacity:0.9;}</style></defs><path class="cls-1" d="M32.84,53.84,36.3,7.6a100.84,100.84,0,0,1-20.4-.45C10.64,6.51,5.81,6.13,1.31,6L4.89,53.84Z"/><path class="cls-2" d="M36.3,7.6a100.84,100.84,0,0,1-20.4-.45C10.64,6.51,5.81,6.13,1.31,6"/><line class="cls-3" x1="0.87" y1="1" x2="36.74" y2="1"/><polyline class="cls-4" points="1 1 4.96 53.84 32.91 53.84 36.86 1"/><rect class="cls-5" x="7.35" y="22.96" width="12.91" height="12.91" rx="1.99" transform="matrix(0.87, -0.5, 0.5, 0.87, -12.86, 10.84)"/><rect class="cls-6" x="12.99" y="32.71" width="14.41" height="14.41" rx="2.21" transform="translate(18.1 -4.77) rotate(24.15)"/><rect class="cls-5" x="19.22" y="12.14" width="11.83" height="11.83" rx="1.82" transform="translate(7.85 -7.62) rotate(20.37)"/></svg>