<svg xmlns="http://www.w3.org/2000/svg" viewBox="0 0 37.86 65.46"><defs><style>.cls-1{isolation:isolate;}.cls-2{mix-blend-mode:multiply;}.cls-3{fill:#eaeae8;}.cls-4{fill:#6e4723;}.cls-5{fill:#ebdecd;}.cls-6,.cls-7,.cls-8{fill:none;}.cls-6{stroke:#c6c6c6;stroke-width:0.25px;}.cls-6,.cls-8{stroke-miterlimit:10;}.cls-7,.cls-8{stroke:#1d1d1b;stroke-width:2px;}.cls-7{stroke-linecap:round;stroke-linejoin:round;}.cls-10,.cls-9{fill:#daeef1;}.cls-9{opacity:0.8;}.cls-10{opacity:0.9;}</style></defs><g class="cls-1"><g id="Ebene_1" data-name="Ebene 1"><g class="cls-2"><path class="cls-3" d="M36.49,10.93c-.52-2-1.83-5.7-3.62-6.94a10.81,10.81,0,0,0-6.11-1.88h-.5l-.64,0c-.4,0-.84.07-1.31.07-.3,0-.61,0-.92,0A8.08,8.08,0,0,1,21,1.6,17.91,17.91,0,0,0,13.92,0,13.17,13.17,0,0,0,7.64,1.55C4.58,3.17,2.25,7.86,1.42,11"/></g><path class="cls-3" d="M2.81,27.18C14.89,28.92,26,29.83,34.94,28.51l1.52-17.89H1.4Z"/><path class="cls-4" d="M33.44,46.1,35,27.39c-2.78,0-6,.14-9.74.36-10.07.59-17.38-.12-22.55-1.24L4.39,45.8C14.54,44.54,25.45,45.49,33.44,46.1Z"/><path class="cls-5" d="M31.89,64.34l1.68-19.68c-8.93-.17-22.74-1.12-29.31-.49h0L6,64.34Z"/><path class="cls-6" d="M36.48,10.72C36,8.8,34.65,5.17,32.86,4a11.15,11.15,0,0,0-6.11-1.81l-.51,0-.63,0c-.41,0-.85.06-1.31.06-.3,0-.61,0-.92,0A8.26,8.26,0,0,1,21,1.67,18.59,18.59,0,0,0,13.91.13,13.68,13.68,0,0,0,7.63,1.62c-3,1.56-5.37,6.13-6.21,9.12h0L2.79,27.31h0l1.45,17h0L6,64.46H31.88l1.55-18.23h0l1.5-17.59h0l1.52-17.9Z"/><polyline class="cls-7" points="1 11.63 4.96 64.46 32.91 64.46 36.86 11.63"/><line class="cls-8" x1="1" y1="11.63" x2="36.86" y2="11.63"/><rect class="cls-9" x="7.51" y="33.59" width="12.91" height="12.91" rx="1.99" transform="matrix(0.87, -0.5, 0.5, 0.87, -18.15, 12.35)"/><rect class="cls-10" x="13.16" y="43.33" width="14.41" height="14.41" rx="2.21" transform="translate(22.46 -3.91) rotate(24.15)"/><rect class="cls-9" x="19.25" y="22.76" width="11.83" height="11.83" rx="1.82" transform="translate(11.55 -6.96) rotate(20.37)"/></g></g></svg>