<svg id="Ebene_1" data-name="Ebene 1" xmlns="http://www.w3.org/2000/svg" viewBox="0 0 37.86 54.85"><defs><style>.cls-1{fill:#ebdecd;}.cls-2,.cls-5{fill:none;stroke:#1d1d1b;stroke-width:2px;}.cls-2{stroke-miterlimit:10;}.cls-3{fill:#ca8b53;}.cls-4{fill:#6e4723;}.cls-5{stroke-linecap:round;stroke-linejoin:round;}.cls-6,.cls-7{fill:#daeef1;}.cls-6{opacity:0.8;}.cls-7{opacity:0.9;}</style></defs><path class="cls-1" d="M2.81,19.77C14.89,21.84,26,22.93,34.94,21.36L36.46,0H1.4Z"/><line class="cls-2" x1="1" y1="1.01" x2="36.86" y2="1.01"/><path class="cls-3" d="M27.69,19.3c-6.63-.78-17-2.59-22-2.59A28.05,28.05,0,0,0,2,17L4,38.66a36.76,36.76,0,0,1,11.11,1.06c9.75,2.44,15.16,2.55,18.3,1.87l2.06-22.17A41.44,41.44,0,0,1,27.69,19.3Z"/><path class="cls-4" d="M24.49,38.09c-6.75-1-11.22-4.27-18.57-4.62a15.65,15.65,0,0,0-2.07,0l1.4,20.72H32.38L33.5,37.7A22.7,22.7,0,0,1,24.49,38.09Z"/><polyline class="cls-5" points="1 1.01 4.96 53.85 32.91 53.85 36.86 1.01"/><rect class="cls-6" x="7.78" y="22.97" width="12.91" height="12.91" rx="1.99" transform="translate(-12.81 11.06) rotate(-30)"/><rect class="cls-7" x="13.42" y="32.72" width="14.41" height="14.41" rx="2.21" transform="translate(18.14 -4.94) rotate(24.15)"/><rect class="cls-6" x="19.22" y="12.15" width="11.83" height="11.83" rx="1.82" transform="translate(7.86 -7.62) rotate(20.37)"/></svg>