<svg id="Ebene_1" data-name="Ebene 1" xmlns="http://www.w3.org/2000/svg" viewBox="0 0 37.86 66.37"><defs><style>.cls-1{fill:#ebdecd;}.cls-2{fill:#6e4723;}.cls-3,.cls-4,.cls-5{fill:none;stroke-width:2px;}.cls-3{stroke:#ca8b53;}.cls-3,.cls-4{stroke-miterlimit:10;}.cls-4,.cls-5{stroke:#1d1d1b;}.cls-5{stroke-linecap:round;stroke-linejoin:round;}</style></defs><path class="cls-1" d="M36.49,11.83c-.52-2-1.83-5.69-3.62-6.94A10.81,10.81,0,0,0,26.76,3l-.5,0-.64,0c-.4,0-.84.06-1.31.06-.3,0-.61,0-.92,0A8.08,8.08,0,0,1,21,2.5,18.09,18.09,0,0,0,13.92.9,13.17,13.17,0,0,0,7.64,2.45C4.58,4.07,2.25,8.76,1.42,11.87"/><path class="cls-1" d="M1.13,12.86l2.51,31.8c5.51-.49,11.42.81,16.89,1.39,3.48.36,6.37-.33,9.77-.91,1.22-.21,2.49-.34,3.77-.44l2.52-31.84Z"/><path class="cls-2" d="M35.39,30a35,35,0,0,1-7.75-.14c-6.63-.92-17-3-22-3a25,25,0,0,0-3.71.3l2,25.46H4L5,65.16H32.11l.72-9.06c.17,0,.34-.07.5-.12Z"/><path class="cls-3" d="M36.41,12c-.51-1.91-1.9-6-3.69-7.2A11.15,11.15,0,0,0,26.61,3H26.1l-.63,0c-.41,0-.85.06-1.31.06-.3,0-.61,0-.93,0a8.63,8.63,0,0,1-2.35-.56A18.59,18.59,0,0,0,13.77,1,13.68,13.68,0,0,0,7.49,2.49c-3.06,1.56-5.58,7-6.42,10"/><line class="cls-4" x1="1" y1="12.53" x2="36.86" y2="12.53"/><polyline class="cls-5" points="1 12.53 4.96 65.37 32.91 65.37 36.86 12.53"/></svg>