<svg id="Ebene_1" data-name="Ebene 1" xmlns="http://www.w3.org/2000/svg" viewBox="0 0 37.86 66.35"><defs><style>.cls-1{fill:#eaeae8;}.cls-2,.cls-6,.cls-7{fill:none;stroke-width:2px;}.cls-2{stroke:#ca8b53;}.cls-2,.cls-7{stroke-miterlimit:10;}.cls-3{fill:#fff;}.cls-4{fill:#ca8b53;opacity:0.75;}.cls-5{fill:#ebdecd;}.cls-6,.cls-7{stroke:#1d1d1b;}.cls-6{stroke-linecap:round;stroke-linejoin:round;}</style></defs><path class="cls-1" d="M36.46,11.83c-.52-2-1.83-5.69-3.62-6.94A10.79,10.79,0,0,0,26.73,3l-.5,0-.64,0c-.4,0-.84.06-1.31.06-.3,0-.6,0-.92,0A8.08,8.08,0,0,1,21,2.5,18.08,18.08,0,0,0,13.9.9,13.21,13.21,0,0,0,7.61,2.45C4.55,4.07,2.23,8.76,1.39,11.87"/><path class="cls-2" d="M36.38,12c-.51-1.91-1.9-6-3.69-7.2A11.15,11.15,0,0,0,26.58,3h-.51l-.63,0c-.41,0-.85.06-1.31.06-.3,0-.61,0-.92,0a8.45,8.45,0,0,1-2.35-.56A18.69,18.69,0,0,0,13.74,1,13.68,13.68,0,0,0,7.46,2.49c-3,1.56-5.58,7-6.41,10"/><path class="cls-3" d="M33.44,47,35,28.27c-2.78,0-6,.15-9.74.36-10.07.59-17.38-.11-22.55-1.24l1.64,19.3C14.54,45.43,25.45,46.38,33.44,47Z"/><path class="cls-1" d="M1.4,11.86,2.81,28.11h0l-.06-.72c5.17,1.13,12.48,1.83,22.55,1.24,3.75-.21,7-.33,9.74-.36l-.1,1.14h0l1.52-17.55Z"/><path class="cls-4" d="M33.44,47,35,28.27c-2.78,0-6,.15-9.74.36-10.07.59-17.38-.11-22.55-1.24l1.64,19.3C14.54,45.43,25.45,46.38,33.44,47Z"/><path class="cls-5" d="M31.89,65.22l1.68-19.67c-8.93-.17-22.74-1.13-29.31-.49h0L6,65.22Z"/><polyline class="cls-6" points="1 12.51 4.96 65.35 32.91 65.35 36.86 12.51"/><line class="cls-7" x1="1" y1="12.51" x2="36.86" y2="12.51"/></svg>