<svg xmlns="http://www.w3.org/2000/svg" viewBox="0 0 37.86 65.46"><defs><style>.cls-1{isolation:isolate;}.cls-2{mix-blend-mode:multiply;}.cls-3{fill:#eaeae8;}.cls-4,.cls-5,.cls-8{fill:none;}.cls-4{stroke:#c6c6c6;stroke-width:0.25px;}.cls-4,.cls-5{stroke-miterlimit:10;}.cls-5,.cls-8{stroke:#1d1d1b;stroke-width:2px;}.cls-6{fill:#ca8b53;}.cls-7{fill:#ebdecd;}.cls-8{stroke-linecap:round;stroke-linejoin:round;}</style></defs><g class="cls-1"><g id="Ebene_1" data-name="Ebene 1"><g class="cls-2"><path class="cls-3" d="M36.49,10.93c-.52-2-1.83-5.7-3.62-6.94a10.81,10.81,0,0,0-6.11-1.88h-.5l-.64,0c-.4,0-.84.07-1.31.07-.3,0-.61,0-.92,0A8.08,8.08,0,0,1,21,1.6,17.91,17.91,0,0,0,13.92,0,13.17,13.17,0,0,0,7.64,1.55C4.58,3.17,2.25,7.86,1.42,11"/></g><path class="cls-3" d="M2.81,27.18C14.89,28.92,26,29.83,34.94,28.51l1.52-17.89H1.4Z"/><path class="cls-4" d="M36.48,10.72C36,8.8,34.65,5.17,32.86,4a11.15,11.15,0,0,0-6.11-1.81l-.51,0-.63,0c-.41,0-.85.06-1.31.06-.3,0-.61,0-.92,0A8.26,8.26,0,0,1,21,1.67,18.59,18.59,0,0,0,13.91.13,13.68,13.68,0,0,0,7.63,1.62c-3,1.56-5.37,6.13-6.21,9.12h0L2.79,27.31h0l1.45,17h0L6,64.46H31.88l1.55-18.23h0l1.5-17.59h0l1.52-17.9Z"/><line class="cls-5" x1="1" y1="11.63" x2="36.86" y2="11.63"/><path class="cls-6" d="M35.44,24.81,33.38,52.14c-3.14.8-8.55.67-18.3-2.19A31.6,31.6,0,0,0,4,48.7L2,25.17C9.12,22.17,27.15,26.74,35.44,24.81Z"/><path class="cls-7" d="M24.49,40.51c-6.75-.85-11.22-2.58-18.57-2.88-.74,0-2.35-.06-3,0L5.25,64.83H32.38l2.44-24.66A34.6,34.6,0,0,1,24.49,40.51Z"/><polyline class="cls-8" points="1 11.63 4.96 64.46 32.91 64.46 36.86 11.63"/></g></g></svg>