<svg xmlns="http://www.w3.org/2000/svg" viewBox="0 0 37.86 65.54"><defs><style>.cls-1{isolation:isolate;}.cls-2{fill:#eaeae8;}.cls-3{fill:#ca8b53;}.cls-4{fill:#ebdecd;}.cls-5{mix-blend-mode:multiply;}.cls-10,.cls-6,.cls-7{fill:none;}.cls-6{stroke:#c6c6c6;stroke-width:0.25px;}.cls-6,.cls-7{stroke-miterlimit:10;}.cls-10,.cls-7{stroke:#1d1d1b;stroke-width:2px;}.cls-8,.cls-9{fill:#daeef1;}.cls-8{opacity:0.8;}.cls-9{opacity:0.9;}.cls-10{stroke-linecap:round;stroke-linejoin:round;}</style></defs><g class="cls-1"><g id="Ebene_1" data-name="Ebene 1"><path class="cls-2" d="M2.81,27.26C14.89,29,26,29.9,34.94,28.59l1.52-17.9H1.4Z"/><path class="cls-3" d="M35.44,24.89,33.38,52.21c-3.14.81-8.55.68-18.3-2.19A31.57,31.57,0,0,0,4,48.78L2,25.25C9.12,22.25,27.15,26.82,35.44,24.89Z"/><path class="cls-4" d="M24.49,40.59C17.74,39.74,13.27,38,5.92,37.7c-.74,0-2.35-.05-3,0L5.25,64.91H32.38l2.44-24.66A34.6,34.6,0,0,1,24.49,40.59Z"/><g class="cls-5"><path class="cls-2" d="M36.49,11C36,9,34.66,5.31,32.87,4.06a10.88,10.88,0,0,0-6.11-1.87h-.5l-.64,0c-.4,0-.84.06-1.31.06a7.19,7.19,0,0,1-.92,0A7.77,7.77,0,0,1,21,1.67,18.09,18.09,0,0,0,13.92.08,13.28,13.28,0,0,0,7.64,1.62C4.58,3.24,2.25,7.93,1.42,11.05"/></g><path class="cls-6" d="M36.5,10.71C36,8.8,34.67,5.16,32.88,4a11.11,11.11,0,0,0-6.11-1.8h-.5l-.63,0c-.41,0-.85.06-1.32.06a7.39,7.39,0,0,1-.92,0,8.19,8.19,0,0,1-2.35-.56A18.59,18.59,0,0,0,13.94.12,13.75,13.75,0,0,0,7.65,1.61C4.6,3.17,2.28,7.74,1.44,10.74h0L2.82,27.3h0l1.44,17h0L6,64.46H31.9l1.56-18.24h0L35,28.63h0l1.53-17.89Z"/><line class="cls-7" x1="1" y1="11.62" x2="36.86" y2="11.62"/><rect class="cls-8" x="6.96" y="33.58" width="12.91" height="12.91" rx="1.99" transform="matrix(0.87, -0.5, 0.5, 0.87, -18.22, 12.07)"/><rect class="cls-9" x="12.61" y="43.33" width="14.41" height="14.41" rx="2.21" transform="translate(22.41 -3.68) rotate(24.15)"/><polyline class="cls-10" points="1 11.7 4.96 64.54 32.91 64.54 36.86 11.7"/><rect class="cls-8" x="19.25" y="22.84" width="11.83" height="11.83" rx="1.82" transform="translate(11.58 -6.96) rotate(20.37)"/></g></g></svg>