<svg id="Ebene_1" data-name="Ebene 1" xmlns="http://www.w3.org/2000/svg" viewBox="0 0 37.86 66.46"><defs><style>.cls-1{fill:#eaeae8;}.cls-2{fill:#fff;}.cls-3{fill:#ebdecd;}.cls-4{fill:#6e4723;}.cls-5,.cls-6,.cls-7{fill:none;stroke-width:2px;}.cls-5{stroke:#ebdecd;}.cls-5,.cls-6{stroke-miterlimit:10;}.cls-6,.cls-7{stroke:#1d1d1b;}.cls-7{stroke-linecap:round;stroke-linejoin:round;}</style></defs><path class="cls-1" d="M36.49,11.93c-.52-2-1.83-5.7-3.62-6.94a10.81,10.81,0,0,0-6.11-1.88h-.5l-.64,0c-.4,0-.84.07-1.31.07-.3,0-.61,0-.92,0A8.08,8.08,0,0,1,21,2.6,17.91,17.91,0,0,0,13.92,1,13.17,13.17,0,0,0,7.64,2.55C4.58,4.17,2.25,8.86,1.42,12"/><polygon class="cls-2" points="7.88 5.98 7.04 8.13 8.28 8.38 8.52 6.03 7.88 5.98"/><path class="cls-1" d="M2.58,28.5c12.08,1.74,23.22,2.65,32.13,1.34l1.52-17.9H1.17Z"/><path class="cls-3" d="M27.46,27.3c-6.63-.91-17-3-22-3a23.71,23.71,0,0,0-3.71.3L3.74,50a31.6,31.6,0,0,1,11.11,1.25c9.75,2.86,15.16,3,18.3,2.19l2.06-26A35.7,35.7,0,0,1,27.46,27.3Z"/><path class="cls-4" d="M24.26,52.36c-6.75-.85-11.22-3.65-18.57-4a20.15,20.15,0,0,0-2.07,0L5,66.15H32.15L33.27,52A26.26,26.26,0,0,1,24.26,52.36Z"/><path class="cls-5" d="M36.45,11.61l0,0C36,9.67,34.65,6,32.86,4.84A11.15,11.15,0,0,0,26.75,3h-.51l-.63,0c-.41,0-.85.06-1.31.06-.3,0-.61,0-.92,0A8.61,8.61,0,0,1,21,2.54,18.59,18.59,0,0,0,13.91,1,13.68,13.68,0,0,0,7.63,2.49c-3,1.56-5.37,6.13-6.21,9.12l-.12.75"/><line class="cls-6" x1="1" y1="12.63" x2="36.86" y2="12.63"/><line class="cls-6" x1="1.02" y1="12.63" x2="36.89" y2="12.63"/><polyline class="cls-7" points="1 12.63 4.96 65.46 32.91 65.46 36.86 12.63"/><polygon class="cls-2" points="28.74 7.35 26.93 5.72 26.22 6.85 28.45 7.96 28.74 7.35"/><polygon class="cls-2" points="22.22 7.68 21.04 9.67 22.23 10.12 22.84 7.84 22.22 7.68"/><polygon class="cls-2" points="30.85 23.24 30.75 20.94 29.52 21.21 30.25 23.46 30.85 23.24"/><polygon class="cls-2" points="15.3 6.76 15.27 3.83 13.68 4.13 14.52 7.01 15.3 6.76"/><polygon class="cls-2" points="8.65 20.63 8.63 17.7 7.04 17.99 7.87 20.88 8.65 20.63"/><polygon class="cls-2" points="19.71 24.02 21.97 23.07 21.24 21.94 19.27 23.49 19.71 24.02"/><polygon class="cls-2" points="26.01 16.09 25.17 18.23 26.42 18.48 26.66 16.13 26.01 16.09"/><polygon class="cls-2" points="13.27 18.59 15.53 17.65 14.8 16.52 12.83 18.07 13.27 18.59"/></svg>