<svg id="Ebene_1" data-name="Ebene 1" xmlns="http://www.w3.org/2000/svg" viewBox="0 0 37.86 54.84"><defs><style>.cls-1{fill:#fff;}.cls-2{fill:#ca8b53;opacity:0.75;}.cls-3,.cls-4,.cls-5{fill:none;stroke-width:2px;}.cls-3{stroke:#ebdecd;}.cls-3,.cls-4{stroke-miterlimit:10;}.cls-4,.cls-5{stroke:#1d1d1b;}.cls-5{stroke-linecap:round;stroke-linejoin:round;}</style></defs><path class="cls-1" d="M32.91,53.84,36.37,7.6A100.83,100.83,0,0,1,16,7.15C10.71,6.51,5.87,6.13,1.38,6L5,53.84Z"/><path class="cls-2" d="M32.91,53.84,36.37,7.6A100.83,100.83,0,0,1,16,7.15C10.71,6.51,5.87,6.13,1.38,6L5,53.84Z"/><path class="cls-3" d="M36.68,7.6a100.84,100.84,0,0,1-20.4-.45C11,6.51,6.19,6.13,1.69,6"/><line class="cls-4" x1="1" y1="1" x2="36.86" y2="1"/><polyline class="cls-5" points="1 1 4.96 53.84 32.91 53.84 36.86 1"/></svg>