<svg id="Ebene_1" data-name="Ebene 1" xmlns="http://www.w3.org/2000/svg" viewBox="0 0 37.86 59.59"><defs><style>.cls-1{fill:#fff;}.cls-2{fill:#ca8b53;opacity:0.75;}.cls-3,.cls-4,.cls-5{fill:none;stroke-width:2px;}.cls-3{stroke:#ebdecd;}.cls-3,.cls-4{stroke-miterlimit:10;}.cls-4,.cls-5{stroke:#1d1d1b;}.cls-5{stroke-linecap:round;stroke-linejoin:round;}.cls-6,.cls-7{fill:#daeef1;}.cls-6{opacity:0.8;}.cls-7{opacity:0.9;}</style></defs><path class="cls-1" d="M32.91,58.59l3.46-46.24A100.83,100.83,0,0,1,16,11.9c-5.26-.64-10.1-1-14.59-1.14L5,58.59Z"/><path class="cls-2" d="M32.91,58.59l3.46-46.24A100.83,100.83,0,0,1,16,11.9c-5.26-.64-10.1-1-14.59-1.14L5,58.59Z"/><path class="cls-3" d="M36.43,12.49A100.1,100.1,0,0,1,16,12c-5.26-.63-10.1-1-14.6-1.13"/><line class="cls-4" x1="1" y1="5.75" x2="36.86" y2="5.75"/><polyline class="cls-5" points="1 5.75 4.96 58.59 32.91 58.59 36.86 5.75"/><rect class="cls-6" x="7.45" y="27.71" width="12.91" height="12.91" rx="1.99" transform="matrix(0.87, -0.5, 0.5, 0.87, -15.22, 11.53)"/><rect class="cls-7" x="13.1" y="37.46" width="14.41" height="14.41" rx="2.21" transform="translate(20.05 -4.4) rotate(24.15)"/><rect class="cls-6" x="19.22" y="16.89" width="11.83" height="11.83" rx="1.82" transform="translate(9.51 -7.32) rotate(20.37)"/></svg>