<svg id="Ebene_1" data-name="Ebene 1" xmlns="http://www.w3.org/2000/svg" viewBox="0 0 37.86 65.46"><defs><style>.cls-1{fill:#ebdecd;}.cls-2{fill:#ca8b53;}.cls-3,.cls-4,.cls-5{fill:none;}.cls-3{stroke:#c6c6c6;stroke-width:0.25px;}.cls-3,.cls-4{stroke-miterlimit:10;}.cls-4,.cls-5{stroke:#1d1d1b;stroke-width:2px;}.cls-5{stroke-linecap:round;stroke-linejoin:round;}.cls-6,.cls-7{fill:#daeef1;}.cls-6{opacity:0.8;}.cls-7{opacity:0.9;}</style></defs><path class="cls-1" d="M1.13,12l2.51,31.8c5.51-.5,11.42.81,16.89,1.38,3.48.37,6.37-.33,9.77-.91,1.22-.2,2.49-.33,3.77-.44L36.59,12Z"/><path class="cls-2" d="M32.42,64.67l1.84-23.19c-3.51,1.6-10.18,3.46-19.07.64a35.6,35.6,0,0,0-11.84-2L5.29,64.67Z"/><path class="cls-1" d="M36.49,10.93c-.52-2-1.83-5.7-3.62-6.94a10.81,10.81,0,0,0-6.11-1.88h-.5l-.64,0c-.4,0-.84.07-1.31.07-.3,0-.61,0-.92,0A8.08,8.08,0,0,1,21,1.6,17.91,17.91,0,0,0,13.92,0,13.17,13.17,0,0,0,7.64,1.55C4.58,3.17,2.25,7.86,1.42,11"/><path class="cls-3" d="M36.45,10.74l0,0C36,8.8,34.65,5.17,32.86,4a11.15,11.15,0,0,0-6.11-1.81l-.51,0-.63,0c-.41,0-.85.06-1.31.06-.3,0-.61,0-.92,0A8.26,8.26,0,0,1,21,1.67,18.59,18.59,0,0,0,13.91.13,13.68,13.68,0,0,0,7.63,1.62c-3,1.56-5.37,6.13-6.21,9.12h0"/><line class="cls-4" x1="1" y1="11.63" x2="36.86" y2="11.63"/><polyline class="cls-5" points="1 11.63 4.96 64.46 32.91 64.46 36.86 11.63"/><rect class="cls-6" x="7.25" y="33.59" width="12.91" height="12.91" rx="1.99" transform="translate(-18.19 12.22) rotate(-30)"/><rect class="cls-7" x="12.89" y="43.33" width="14.41" height="14.41" rx="2.21" transform="translate(22.43 -3.8) rotate(24.15)"/><rect class="cls-6" x="19.25" y="22.76" width="11.83" height="11.83" rx="1.82" transform="translate(11.55 -6.96) rotate(20.37)"/></svg>