<svg id="Ebene_1" data-name="Ebene 1" xmlns="http://www.w3.org/2000/svg" viewBox="0 0 39.33 44.89"><defs><style>.cls-1{fill:none;stroke:#161615;stroke-linecap:round;stroke-linejoin:round;stroke-width:2px;}</style></defs><g id="Gruppe_374" data-name="Gruppe 374"><g id="Gruppe_367" data-name="Gruppe 367"><g id="Gruppe_366" data-name="Gruppe 366"><path id="Pfad_282" data-name="Pfad 282" class="cls-1" d="M17.15,19a4.27,4.27,0,0,1,5.76.69C24.94,13.87,21.75,1,19.67,1S14.4,13.86,16.43,19.66A4.23,4.23,0,0,1,17.15,19Z"/><path id="Pfad_283" data-name="Pfad 283" class="cls-1" d="M16.2,25A4.28,4.28,0,0,1,15.63,21C9.59,22.19.07,31.38,1.09,33.17s13.77-1.87,17.79-6.52A4.23,4.23,0,0,1,16.2,25Z"/><path id="Pfad_284" data-name="Pfad 284" class="cls-1" d="M23.7,21a4.23,4.23,0,0,1-2.52,5.44,4.41,4.41,0,0,1-.71.2c4,4.65,16.74,8.31,17.78,6.52S29.74,22.17,23.7,21Z"/></g><circle id="Ellipse_54" data-name="Ellipse 54" class="cls-1" cx="19.69" cy="22.44" r="4.29"/><path id="Pfad_285" data-name="Pfad 285" class="cls-1" d="M38.24,11.72c-.84-1.45-9.36.67-14.7,4a13.8,13.8,0,0,1-.63,3.93c.07.09.16.17.23.27A4.14,4.14,0,0,1,23.7,21a13.41,13.41,0,0,1,3.72,1.41C33,19.49,39.08,13.18,38.24,11.72Z"/><path id="Pfad_286" data-name="Pfad 286" class="cls-1" d="M1.08,11.74c.84-1.46,9.36.67,14.69,4a13.75,13.75,0,0,0,.64,3.93,3.08,3.08,0,0,0-.24.27,4.14,4.14,0,0,0-.56,1.11,13.86,13.86,0,0,0-3.72,1.41C6.34,19.5.24,13.19,1.08,11.74Z"/><path id="Pfad_287" data-name="Pfad 287" class="cls-1" d="M19.65,43.89c-1.68,0-4.09-8.45-3.87-14.74a13.6,13.6,0,0,0,3.09-2.51c.12,0,.23.06.35.07a4,4,0,0,0,1.24-.07,13.81,13.81,0,0,0,3.08,2.52C23.75,35.45,21.33,43.89,19.65,43.89Z"/></g><g id="Gruppe_368" data-name="Gruppe 368"><path id="Pfad_289" data-name="Pfad 289" class="cls-1" d="M17.15,19a4.27,4.27,0,0,1,5.76.69C24.94,13.87,21.75,1,19.67,1S14.4,13.86,16.43,19.66A4.23,4.23,0,0,1,17.15,19Z"/><path id="Pfad_290" data-name="Pfad 290" class="cls-1" d="M16.2,25A4.28,4.28,0,0,1,15.63,21C9.59,22.19.07,31.38,1.09,33.17s13.77-1.87,17.79-6.52A4.23,4.23,0,0,1,16.2,25Z"/><path id="Pfad_291" data-name="Pfad 291" class="cls-1" d="M23.7,21a4.23,4.23,0,0,1-2.52,5.44,4.41,4.41,0,0,1-.71.2c4,4.65,16.74,8.31,17.78,6.52S29.74,22.17,23.7,21Z"/></g><circle id="Ellipse_55" data-name="Ellipse 55" class="cls-1" cx="19.69" cy="22.44" r="4.29"/><path id="Pfad_292" data-name="Pfad 292" class="cls-1" d="M38.24,11.72c-.84-1.45-9.36.67-14.7,4a13.8,13.8,0,0,1-.63,3.93c.07.09.16.17.23.27A4.14,4.14,0,0,1,23.7,21a13.41,13.41,0,0,1,3.72,1.41C33,19.49,39.08,13.18,38.24,11.72Z"/><path id="Pfad_293" data-name="Pfad 293" class="cls-1" d="M1.08,11.74c.84-1.46,9.36.67,14.69,4a13.75,13.75,0,0,0,.64,3.93,3.08,3.08,0,0,0-.24.27,4.14,4.14,0,0,0-.56,1.11,13.86,13.86,0,0,0-3.72,1.41C6.34,19.5.24,13.19,1.08,11.74Z"/><path id="Pfad_294" data-name="Pfad 294" class="cls-1" d="M19.66,43.89c-1.69,0-4.1-8.45-3.88-14.74a13.6,13.6,0,0,0,3.09-2.51c.12,0,.23.06.35.07a4,4,0,0,0,1.24-.07,13.81,13.81,0,0,0,3.08,2.52C23.75,35.45,21.34,43.89,19.66,43.89Z"/></g></svg>