<svg id="Ebene_1" data-name="Ebene 1" xmlns="http://www.w3.org/2000/svg" viewBox="0 0 37.99 65.46"><defs><style>.cls-1{fill:#ebdecd;}.cls-2{fill:#6e4723;}.cls-3,.cls-4,.cls-5{fill:none;}.cls-3{stroke:#c6c6c6;stroke-width:0.25px;}.cls-3,.cls-4{stroke-miterlimit:10;}.cls-4,.cls-5{stroke:#1d1d1b;stroke-width:2px;}.cls-5{stroke-linecap:round;stroke-linejoin:round;}.cls-6,.cls-7{fill:#daeef1;}.cls-6{opacity:0.8;}.cls-7{opacity:0.9;}</style></defs><path class="cls-1" d="M1.25,12l2.52,31.8c5.5-.5,11.41.81,16.88,1.38,3.49.37,6.38-.33,9.78-.91,1.22-.2,2.49-.33,3.77-.44L36.72,12Z"/><path class="cls-2" d="M32.55,64.67l1.83-23.19c-3.51,1.6-10.17,3.46-19.06.64a35.64,35.64,0,0,0-11.84-2L5.42,64.67Z"/><path class="cls-1" d="M36.61,10.93C36.1,8.94,34.79,5.23,33,4a10.82,10.82,0,0,0-6.12-1.88h-.5l-.63,0c-.41,0-.85.07-1.31.07-.3,0-.61,0-.93,0a8.25,8.25,0,0,1-2.35-.58A17.86,17.86,0,0,0,14.05,0,13.17,13.17,0,0,0,7.77,1.55C4.71,3.17,2.38,7.86,1.55,11"/><path class="cls-3" d="M36.6,10.72C36.08,8.8,34.78,5.17,33,4a11.1,11.1,0,0,0-6.11-1.81l-.5,0-.63,0c-.41,0-.85.06-1.32.06-.29,0-.6,0-.92,0a8.19,8.19,0,0,1-2.35-.56A18.59,18.59,0,0,0,14,.13,13.75,13.75,0,0,0,7.75,1.62c-3,1.56-5.37,6.13-6.21,9.12h0L2.92,27.31h0l1.44,17h0L5.42,64.67H32.55l1-18.44h0l1.49-17.59h0l1.53-17.9Z"/><line class="cls-4" x1="1.13" y1="11.63" x2="36.99" y2="11.63"/><polyline class="cls-5" points="1.13 11.63 5.08 64.46 33.03 64.46 36.99 11.63"/><polyline class="cls-5" points="1 11.63 4.96 64.46 32.91 64.46 36.86 11.63"/><rect class="cls-6" x="7.22" y="33.59" width="12.91" height="12.91" rx="1.99" transform="translate(-18.19 12.2) rotate(-30)"/><rect class="cls-7" x="12.87" y="43.33" width="14.41" height="14.41" rx="2.21" transform="translate(22.43 -3.79) rotate(24.15)"/><rect class="cls-6" x="19.28" y="22.76" width="11.83" height="11.83" rx="1.82" transform="translate(11.56 -6.98) rotate(20.37)"/></svg>