<svg id="Ebene_1" data-name="Ebene 1" xmlns="http://www.w3.org/2000/svg" viewBox="0 0 37.86 66.46"><defs><style>.cls-1{fill:#ebdecd;}.cls-2{fill:#ca8b53;}.cls-3{fill:#6e4723;}.cls-4,.cls-5,.cls-6{fill:none;stroke-width:2px;}.cls-4{stroke:#559463;}.cls-4,.cls-5{stroke-miterlimit:10;}.cls-5,.cls-6{stroke:#1d1d1b;}.cls-6{stroke-linecap:round;stroke-linejoin:round;}</style></defs><path class="cls-1" d="M2.83,31.62C14.92,33.69,26.05,34.78,35,33.21l1.52-21.36H1.42Z"/><path class="cls-2" d="M27.71,31.15c-6.62-.78-17-2.59-22-2.59A27.82,27.82,0,0,0,2,28.82L4,50.51a36.82,36.82,0,0,1,11.11,1.06c9.75,2.44,15.16,2.55,18.3,1.86l2.05-22.16A41.45,41.45,0,0,1,27.71,31.15Z"/><path class="cls-3" d="M24.52,49.94c-6.75-1-11.23-4.27-18.57-4.63a17.7,17.7,0,0,0-2.08,0l1.4,20.72H32.4l1.12-16.52A22.66,22.66,0,0,1,24.52,49.94Z"/><path class="cls-1" d="M36.49,11.93c-.52-2-1.83-5.7-3.62-6.94a10.81,10.81,0,0,0-6.11-1.88h-.5l-.64,0c-.4,0-.84.07-1.31.07-.3,0-.61,0-.92,0A8.08,8.08,0,0,1,21,2.6,17.91,17.91,0,0,0,13.92,1,13.17,13.17,0,0,0,7.64,2.55C4.58,4.17,2.25,8.86,1.42,12"/><path class="cls-4" d="M36.45,11.61l0,0C36,9.67,34.65,6,32.86,4.84A11.15,11.15,0,0,0,26.75,3h-.51l-.63,0c-.41,0-.85.06-1.31.06-.3,0-.61,0-.92,0A8.61,8.61,0,0,1,21,2.54,18.59,18.59,0,0,0,13.91,1,13.68,13.68,0,0,0,7.63,2.49c-3,1.56-5.37,6.13-6.21,9.12l-.14.6"/><line class="cls-5" x1="1" y1="12.63" x2="36.86" y2="12.63"/><line class="cls-5" x1="1.02" y1="12.63" x2="36.89" y2="12.63"/><polyline class="cls-6" points="1 12.63 4.96 65.46 32.91 65.46 36.86 12.63"/></svg>