<svg id="Ebene_1" data-name="Ebene 1" xmlns="http://www.w3.org/2000/svg" viewBox="0 0 37.86 66.46"><defs><style>.cls-1{fill:#f5a16d;}.cls-2{fill:#6e4723;}.cls-3{fill:#ebdecd;}.cls-4,.cls-5,.cls-6{fill:none;stroke-width:2px;}.cls-4{stroke:#dd8e61;}.cls-4,.cls-5{stroke-miterlimit:10;}.cls-5,.cls-6{stroke:#1d1d1b;}.cls-6{stroke-linecap:round;stroke-linejoin:round;}</style></defs><path class="cls-1" d="M2.91,28.86C15,30.59,26.13,31.5,35,30.19l1.52-17.9H1.5Z"/><path class="cls-2" d="M33.54,47.78l1.6-18.72c-2.78,0-6,.14-9.74.36C15.33,30,8,29.31,2.85,28.18l1.64,19.3C14.64,46.22,25.55,47.17,33.54,47.78Z"/><path class="cls-3" d="M32,66l1.68-19.67c-8.93-.17-22.74-1.13-29.31-.49h0L6.07,66Z"/><path class="cls-1" d="M36.49,11.93c-.52-2-1.83-5.7-3.62-6.94a10.81,10.81,0,0,0-6.11-1.88h-.5l-.64,0c-.4,0-.84.07-1.31.07-.3,0-.61,0-.92,0A8.08,8.08,0,0,1,21,2.6,17.91,17.91,0,0,0,13.92,1,13.17,13.17,0,0,0,7.64,2.55C4.58,4.17,2.25,8.86,1.42,12"/><path class="cls-4" d="M36.45,11.61l0,0C36,9.67,34.65,6,32.86,4.84A11.15,11.15,0,0,0,26.75,3h-.51l-.63,0c-.41,0-.85.06-1.31.06-.3,0-.61,0-.92,0A8.61,8.61,0,0,1,21,2.54,18.59,18.59,0,0,0,13.91,1,13.68,13.68,0,0,0,7.63,2.49c-3,1.56-5.37,6.13-6.21,9.12l-.1.54"/><line class="cls-5" x1="1" y1="12.63" x2="36.86" y2="12.63"/><line class="cls-5" x1="1.02" y1="12.63" x2="36.89" y2="12.63"/><polyline class="cls-6" points="1 12.63 4.96 65.46 32.91 65.46 36.86 12.63"/></svg>