<svg id="Ebene_1" data-name="Ebene 1" xmlns="http://www.w3.org/2000/svg" viewBox="0 0 37.86 66.46"><defs><style>.cls-1{fill:#ebdecd;}.cls-2{fill:#fff;}.cls-3,.cls-4,.cls-6{fill:none;stroke-width:2px;}.cls-3{stroke:#6e4723;}.cls-3,.cls-4{stroke-miterlimit:10;}.cls-4,.cls-6{stroke:#1d1d1b;}.cls-5{fill:#ca8b53;opacity:0.75;}.cls-6{stroke-linecap:round;stroke-linejoin:round;}</style></defs><path class="cls-1" d="M5.67,25.15c5,0,15.39,2.09,22,3a35.52,35.52,0,0,0,7.45.16L36.46,13H1.4L2.47,25.39A23.85,23.85,0,0,1,5.67,25.15Z"/><path class="cls-2" d="M35.44,27.13A35.7,35.7,0,0,1,27.69,27c-6.63-.92-17-3-22-3a23.71,23.71,0,0,0-3.71.3L4,49.7H4L5.25,65.83H32.38L33.5,51.71h0Z"/><path class="cls-1" d="M36.49,11.93c-.52-2-1.83-5.7-3.62-6.94a10.81,10.81,0,0,0-6.11-1.88h-.5l-.64,0c-.4,0-.84.07-1.31.07-.3,0-.61,0-.92,0A8.08,8.08,0,0,1,21,2.6,17.91,17.91,0,0,0,13.92,1,13.17,13.17,0,0,0,7.64,2.55C4.58,4.17,2.25,8.86,1.42,12"/><path class="cls-3" d="M36.45,11.61l0,0C36,9.67,34.65,6,32.86,4.84A11.15,11.15,0,0,0,26.75,3h-.51l-.63,0c-.41,0-.85.06-1.31.06-.3,0-.61,0-.92,0A8.61,8.61,0,0,1,21,2.54,18.59,18.59,0,0,0,13.91,1,13.68,13.68,0,0,0,7.63,2.49c-3,1.56-5.37,6.13-6.21,9.12l0,.24"/><line class="cls-4" x1="1" y1="12.63" x2="36.86" y2="12.63"/><path class="cls-5" d="M35.44,27.13A35.7,35.7,0,0,1,27.69,27c-6.63-.92-17-3-22-3a23.71,23.71,0,0,0-3.71.3L4,49.7H4L5.25,65.83H32.38L33.5,51.71h0Z"/><line class="cls-4" x1="1.02" y1="12.63" x2="36.89" y2="12.63"/><polyline class="cls-6" points="1 12.63 4.96 65.46 32.91 65.46 36.86 12.63"/></svg>