<svg xmlns="http://www.w3.org/2000/svg" viewBox="0 0 37.86 66.33"><defs><style>.cls-1{isolation:isolate;}.cls-2{mix-blend-mode:multiply;}.cls-3{fill:#eaeae8;}.cls-4,.cls-5,.cls-7{fill:none;stroke-width:2px;}.cls-4{stroke:#e5d8c7;}.cls-4,.cls-5{stroke-miterlimit:10;}.cls-5,.cls-7{stroke:#1d1d1b;}.cls-6{fill:#e5d8c7;}.cls-7{stroke-linecap:round;stroke-linejoin:round;}</style></defs><g class="cls-1"><g id="Ebene_1" data-name="Ebene 1"><g class="cls-2"><path class="cls-3" d="M36.49,11.8c-.52-2-1.83-5.7-3.62-7A10.88,10.88,0,0,0,26.76,3h-.5l-.64,0c-.4,0-.84.06-1.31.06-.3,0-.61,0-.92,0A8.07,8.07,0,0,1,21,2.46,18.09,18.09,0,0,0,13.92.87,13.28,13.28,0,0,0,7.64,2.41C4.58,4,2.25,8.72,1.42,11.84"/></g><path class="cls-3" d="M2.81,28.09c12.08,1.7,23.22,2.59,32.13,1.3l1.52-17.55H1.4Z"/><path class="cls-4" d="M36.34,12.06c-.52-1.92-1.69-6-3.48-7.22A11.15,11.15,0,0,0,26.75,3h-.51l-.63,0c-.41,0-.85.06-1.31.06-.3,0-.61,0-.92,0A8.61,8.61,0,0,1,21,2.54,18.59,18.59,0,0,0,13.91,1,13.68,13.68,0,0,0,7.63,2.49c-3,1.56-5.39,6.58-6.23,9.57"/><line class="cls-5" x1="1" y1="12.5" x2="36.86" y2="12.5"/><path class="cls-6" d="M35.44,27a35.7,35.7,0,0,1-7.75-.15c-6.63-.92-17-3-22-3a25,25,0,0,0-3.71.3L4,49.57H4L5.25,65.7H32.38L33.5,51.57h0Z"/><polyline class="cls-7" points="1 12.5 4.96 65.33 32.91 65.33 36.86 12.5"/></g></g></svg>