<svg id="Ebene_1" data-name="Ebene 1" xmlns="http://www.w3.org/2000/svg" viewBox="0 0 35.73 35.96"><defs><style>.cls-1{fill:none;stroke:#1d1d1b;stroke-linecap:round;stroke-linejoin:round;stroke-width:2px;}</style></defs><line class="cls-1" x1="17.86" y1="32.47" x2="17.86" y2="3.49"/><line class="cls-1" x1="14.37" y1="1" x2="17.48" y2="3.49"/><line class="cls-1" x1="21.36" y1="1" x2="18.24" y2="3.49"/><line class="cls-1" x1="21.36" y1="34.96" x2="18.24" y2="32.47"/><line class="cls-1" x1="14.37" y1="34.96" x2="17.48" y2="32.47"/><line class="cls-1" x1="4.73" y1="23.98" x2="31" y2="11.73"/><line class="cls-1" x1="31.77" y1="7.51" x2="30.84" y2="11.38"/><line class="cls-1" x1="34.73" y1="13.85" x2="31.16" y2="12.07"/><line class="cls-1" x1="3.95" y1="28.2" x2="4.89" y2="24.32"/><line class="cls-1" x1="1" y1="21.86" x2="4.57" y2="23.63"/><line class="cls-1" x1="31" y1="23.98" x2="4.73" y2="11.73"/><line class="cls-1" x1="3.95" y1="7.51" x2="4.89" y2="11.38"/><line class="cls-1" x1="1" y1="13.85" x2="4.57" y2="12.07"/><line class="cls-1" x1="31.77" y1="28.2" x2="30.84" y2="24.32"/><line class="cls-1" x1="34.73" y1="21.86" x2="31.16" y2="23.63"/></svg>